<svg preserveAspectRatio="none" width="100%" height="100%" overflow="visible" style="display: block;" viewBox="0 0 57.1443 16.6725" fill="none" xmlns="http://www.w3.org/2000/svg">
<g id="klook">
<path d="M53.3819 4.77316L49.3204 9.2302L49.3194 0.43499C49.3194 0.131436 49.0152 -0.0787923 48.7306 0.0282867L46.6443 0.811241C46.4739 0.875095 46.3617 1.03719 46.3617 1.21794V15.8553C46.3617 16.096 46.5576 16.2905 46.7979 16.2905H48.8842C49.1254 16.2905 49.3204 16.095 49.3204 15.8553V11.1979L53.6526 16.1412C53.7353 16.2355 53.8545 16.2896 53.9805 16.2896H56.7078C57.084 16.2896 57.2828 15.8465 57.0337 15.5665L52.2043 10.1409L56.6517 5.36161C56.9107 5.08359 56.7128 4.63072 56.3327 4.63072H53.7038C53.5817 4.63072 53.4646 4.68279 53.3819 4.77316Z" fill="#FF5B00"/>
<path d="M38.0522 16.6725C34.6673 16.6725 31.9149 13.8118 31.9149 10.2943C31.9149 6.9675 34.5693 4.36153 37.9571 4.36153C41.5132 4.36153 44.0944 6.94973 44.0944 10.5175C44.0944 14.0853 41.5538 16.6725 38.0522 16.6725ZM38.1442 13.9184C39.9089 13.9184 41.1895 12.5261 41.1895 10.6093C41.1895 8.57118 39.9366 7.14821 38.1442 7.14821C36.2796 7.14821 34.9781 8.52181 34.9781 10.4889C34.9781 12.4441 36.3399 13.9184 38.1442 13.9184Z" fill="#FF5B00"/>
<path d="M24.0931 16.6725C20.7092 16.6725 17.9558 13.8118 17.9558 10.2943C17.9558 6.9675 20.6102 4.36153 23.998 4.36153C27.5551 4.36153 30.1363 6.94973 30.1363 10.5175C30.1363 14.0853 27.5947 16.6725 24.0931 16.6725ZM24.1851 13.9184C25.9498 13.9184 27.2305 12.5261 27.2305 10.6093C27.2305 8.57118 25.9775 7.14821 24.1851 7.14821C22.3205 7.14821 21.019 8.52181 21.019 10.4889C21.019 12.4757 22.3502 13.9184 24.1851 13.9184Z" fill="#FF5B00"/>
<path d="M12.736 15.9368L12.7528 1.20946C12.7528 1.02776 12.8657 0.864827 13.0369 0.80064L15.0896 0.0313899C15.3766 -0.076246 15.6824 0.136063 15.6814 0.441196L15.6586 15.9378C15.6586 16.1787 15.4627 16.3743 15.2202 16.3743H13.1735C12.932 16.3743 12.736 16.1778 12.736 15.9368Z" fill="#FF5B00"/>
<path d="M7.02016 4.77316L2.9587 9.2302L2.95773 0.43499C2.95773 0.131436 2.65348 -0.0787923 2.36893 0.0282867L0.282578 0.811241C0.112243 0.875095 0 1.03719 0 1.21794V15.8553C0 16.096 0.195934 16.2905 0.436175 16.2905H2.52253C2.76376 16.2905 2.9587 16.095 2.9587 15.8553V11.1979L7.29092 16.1412C7.37363 16.2355 7.49277 16.2896 7.61879 16.2896H10.3461C10.7222 16.2896 10.9211 15.8465 10.672 15.5665L5.84259 10.1409L10.29 5.36161C10.549 5.08359 10.351 4.63072 9.971 4.63072H7.34212C7.22003 4.63072 7.10287 4.68279 7.02016 4.77316Z" fill="#FF5B00"/>
</g>
</svg>
