<svg preserveAspectRatio="none" width="100%" height="100%" overflow="visible" style="display: block;" viewBox="0 0 27.0833 26" fill="none" xmlns="http://www.w3.org/2000/svg">
<g id="logomark">
<path id="confetti3_4" d="M2.06998 6.79637C2.4864 6.99625 2.91711 7.16681 3.35887 7.30617C4.3064 7.60508 4.43755 7.47941 4.02772 6.63733C3.85439 6.28119 3.66119 5.93885 3.44992 5.61137C3.03705 4.97138 2.7588 4.73611 2.10048 5.29009C1.96947 5.40033 1.84696 5.51938 1.73359 5.64607C1.33603 6.09038 1.34105 6.44648 2.06998 6.79637Z" fill="var(--fill-0, #FF5B00)"/>
<path id="confetti3_3" d="M11.4876 24.8724C11.3246 24.4081 11.1287 23.9553 10.9007 23.5177C10.4119 22.5791 10.2177 22.5753 9.8895 23.5193C9.75069 23.9185 9.63732 24.3223 9.54884 24.7284C9.37592 25.5222 9.40782 25.9091 10.3241 25.9863C10.5065 26.0017 10.6891 26.004 10.8706 25.9937C11.5071 25.9575 11.7729 25.6849 11.4876 24.8724Z" fill="var(--fill-0, #6056D6)"/>
<path id="confetti3_2" d="M24.369 18.0303C23.9982 17.5974 23.6577 17.138 23.3509 16.6554C22.6929 15.6204 22.8009 15.4235 23.9352 15.6425C24.4149 15.7352 24.8845 15.8559 25.3422 16.003C26.2366 16.2905 26.6056 16.5472 26.1549 17.5107C26.0652 17.7024 25.9623 17.8868 25.8474 18.0628C25.4443 18.6798 25.0182 18.7881 24.369 18.0303Z" fill="var(--fill-0, #00CBD1)"/>
<path id="confetti3_1" d="M18.2333 1.61526C17.9052 1.89463 17.557 2.1511 17.1912 2.38221C16.4067 2.8779 16.2575 2.79651 16.4235 1.94205C16.4937 1.58067 16.5853 1.22693 16.6968 0.882182C16.9147 0.208467 17.1092 -0.0695364 17.8394 0.270004C17.9848 0.337573 18.1245 0.415081 18.2579 0.501656C18.7256 0.805267 18.8077 1.12623 18.2333 1.61526Z" fill="var(--fill-0, #FFC200)"/>
<path id="confetti5" d="M4.40564 17.2763C0.758583 19.4491 -0.29859 16.7088 0.0687141 13.1181C0.643796 7.49623 4.40565 7.39966 6.17277 11.4163C7.24073 13.8438 6.83353 15.8299 4.40564 17.2763Z" fill="var(--fill-0, #00CBD1)"/>
<path id="confetti4" d="M8.65163 21.1756C8.65163 21.7846 8.62661 22.3877 8.57755 22.984C8.47691 24.2071 7.6825 25.2279 6.0673 24.2071C5.4054 23.7888 4.78257 23.3143 4.20553 22.7902C2.86921 21.5767 2.52856 20.4006 4.20553 18.9338C4.62891 18.5635 5.06676 18.2093 5.51813 17.8722C7.61789 16.3041 8.43154 17.3652 8.59262 19.561C8.63173 20.0941 8.65163 20.6326 8.65163 21.1756Z" fill="var(--fill-0, #FF5B00)"/>
<path id="confetti3" d="M20.8425 19.9867C19.5398 18.8828 18.1574 17.8694 16.7052 16.9563C13.5904 14.9977 12.998 15.3193 13.6571 18.6955C13.9359 20.1233 14.2993 21.521 14.742 22.8832C15.6071 25.5452 16.3794 26.6437 19.2788 25.3021C19.8558 25.0351 20.4108 24.7288 20.9403 24.3868C22.7972 23.1871 23.1229 21.9189 20.8425 19.9867Z" fill="var(--fill-0, #FFC200)"/>
<path id="confetti2" d="M19.3338 6.23353C18.9355 6.7544 18.5519 7.28705 18.1837 7.83083C16.002 11.0529 16.218 11.1731 19.3338 12.5333C20.4563 13.0233 21.6104 13.4551 22.792 13.8249C27.113 15.1769 27.7738 13.6671 26.5149 9.91961C26.1559 8.8511 25.6589 7.84548 25.0451 6.92371C23.133 4.0526 21.5652 3.31538 19.3338 6.23353Z" fill="var(--fill-0, #FF5B00)"/>
<path id="confetti1" d="M12.5215 0.0334832C11.4382 0.137969 10.3936 0.374608 9.40426 0.72703C6.70851 1.68729 7.10821 2.81625 8.59338 4.9725C8.89996 5.41761 9.21669 5.85522 9.54325 6.285C11.2737 8.5625 11.7304 9.06625 13.1345 5.83693C13.5926 4.78324 13.9998 3.70239 14.3529 2.5975C14.9507 0.72703 14.8585 -0.191914 12.5215 0.0334832Z" fill="var(--fill-0, #6056D6)"/>
</g>
</svg>
